<svg version="1" xmlns="http://www.w3.org/2000/svg" width="666.667" height="666.667" viewBox="0 0 500.000000 500.000000"><path d="M163.1 67c-.4.3-2.8 4.1-5.3 8.5-2.6 4.4-5.5 9.6-6.7 11.5-1.1 1.9-3.8 6.6-5.9 10.5-4.7 8.3-16.8 29.4-18.1 31.5-.5.8-5.2 8.9-10.4 18-5.1 9.1-12.9 22.6-17.2 30-4.3 7.4-9.2 16-10.8 19-1.7 3-3.8 6.6-4.7 8-.9 1.4-3.1 5.2-5 8.5-1.8 3.3-4.1 7.3-5 9-4 6.9-10.1 17.6-11.9 20.8-1 1.9-2.5 4.3-3.1 5.4-1.1 1.7 3.6 10.4 39 72.4 22.1 38.7 40.9 71.5 41.8 72.9.9 1.4 1.5 2.8 1.4 3.3-.1.4.2.7.7.7.5 0 1.1.6 1.3 1.2.2.7 3.2 6.4 6.8 12.7 3.6 6.2 7.9 13.9 9.6 16.9l3.1 5.6 52.9-.1c29.1-.1 76.4-.3 105.1-.4l52.2-.1 2.9-4.7c3.6-5.6 29.2-48.7 30.9-51.9.7-1.3 3.6-6.2 6.4-10.9l5.2-8.5-2.1-3.7c-1.2-2-11.9-20.8-23.9-41.8-12-21-22-38.2-22.3-38.2-.3 0-10.6 16.8-22.9 37.3l-22.3 37.4h-6.2c-20.8 0-106.1 1.4-106.5 1.8-.4.4-3.3-4.3-10.6-17.1-1.2-2.2-7.3-12.8-13.5-23.5s-12.5-21.8-14-24.5c-1.6-2.8-6.7-11.5-11.3-19.5l-8.5-14.5 2.2-4c4.5-8 20.8-36.7 37.4-66l17-30 33.4.2c18.3.1 44 .3 57 .4l23.7.3 22.2 37.8c12.2 20.8 22.5 37.8 23 37.8.4 0 2.9-3.9 5.6-8.8 2.7-4.8 5.9-10.3 7-12.2 1.8-3.1 11.2-19.5 16.6-29 1-1.9 5.8-10.2 10.4-18.3l8.5-14.8-13.3-22.7c-7.3-12.5-14.7-25.1-16.6-28-1.8-2.9-3.3-5.4-3.3-5.7 0-.2-2.5-4.5-5.5-9.5s-5.5-9.5-5.5-9.9c0-.5-25.1-1-55.7-1.1-30.7-.1-78-.2-105.1-.3-27.2-.1-49.7 0-50.1.3z"/><path d="M230.8 196.3c-1.9 3.4-7.2 12.7-11.8 20.7-4.5 8-9.8 17.4-11.8 21-1.9 3.6-4.3 7.8-5.3 9.4-1.7 2.8-1.7 2.9 1.7 8.2 1.9 2.9 3.4 5.5 3.4 5.8 0 .3 2.2 4.3 4.9 8.8 2.7 4.6 5.9 10.1 7.1 12.3 1.2 2.2 5.2 9.1 8.8 15.2l6.5 11.3h68.5l13.7-23.3c7.5-12.7 14.2-24.1 14.8-25.2 4.8-8 5.7-9.6 5.7-10.5 0-.8-33.1-57.2-34.5-58.8-.1-.1-15.5-.4-34.2-.7l-34-.4-3.5 6.2z"/></svg>