<?xml version="1.0" encoding="utf-8"?>
<!-- Generator: Adobe Illustrator 23.0.2, SVG Export Plug-In . SVG Version: 6.00 Build 0)  -->
<svg version="1.1" id="Landscape" xmlns="http://www.w3.org/2000/svg" xmlns:xlink="http://www.w3.org/1999/xlink" x="0px" y="0px"
	 viewBox="0 0 1663 547" style="enable-background:new 0 0 1663 547;" xml:space="preserve">
<style type="text/css">
	.st0{fill:#EEEEEE;}
</style>
<g>
	<polygon class="st0" points="366.7,362.4 366.7,362.4 263.2,363.7 211.5,273.8 263.2,182.6 366.7,183.9 407.6,253.4 451.2,177.1 
		410.3,107.7 219.7,107.1 124.3,273.3 124.3,273.3 219.7,440 410.3,439.4 410.3,439.4 451.2,370.5 407.6,294.3 	"/>
	<polygon class="st0" points="346.1,220 324.9,219.8 284.5,219.2 269.3,246 253.7,273.6 258.9,282.6 284.5,327.1 284.5,327.1 
		284.5,327.1 346.4,327.1 346.4,327.1 346.4,327.1 377.9,273.4 	"/>
</g>
<g>
	<path class="st0" d="M529.2,196.5c-21.3,0-36.3,16.9-36.3,41.5c0,24,14.8,40.3,36.1,40.3c9.4,0,19.3-2.4,28.8-6.8l5.7,11.2
		l-0.9,2.1c-10.2,4.8-21,7.8-35.1,7.8c-30.3,0-52.6-17.4-52.6-54.4c0-33.6,22.3-56.2,53.1-56.2c12.7,0,20.8,1.2,30.7,4.8l0.9,2.3
		l-5.7,12C544.4,197.7,537.2,196.5,529.2,196.5z"/>
	<path class="st0" d="M569.1,237.5c0-32.2,22.3-55.3,54-55.3c31.3,0,53.8,17.1,53.8,55.3c0,32.2-22,55.3-53.8,55.3
		C591.9,292.8,569.1,275.6,569.1,237.5z M623.3,279.8c21.4,0,36-18,36-42.3c0-24.3-14.5-42.3-36.1-42.3c-21.3,0-36,18-36,42.3
		C587.1,261.8,601.8,279.8,623.3,279.8z"/>
	<path class="st0" d="M757.5,257.4l19,31.2l-1.3,2.1h-17.5l-16.5-28.8c-7.8-13.2-16.8-18.7-28.5-17.5v46.3H696V184.2
		c8.8-0.6,21.1-1,30.7-1c24.3,0,36.4,10.5,36.4,27.4c0,12.1-7.2,22.9-22.9,27.9l0.2,1.2C745.5,242.9,751.4,247.4,757.5,257.4z
		 M712.7,231.2c25.5,0.3,32.7-8.9,32.7-19.2c0-11.8-7.4-16.2-19.9-16.2c-4.7,0-9.5,0.3-12.8,0.6V231.2z"/>
	<path class="st0" d="M859.4,262.5l1.2-0.1l-0.8-78.1h16.3v105.4l-15.6,2.1l-51.4-80.1l-1.2,0.1l0.8,78.9h-16.2V185.3l15.1-2.1
		L859.4,262.5z"/>
	<path class="st0" d="M969.5,279l-2.1,11.7h-64.8V184.2h63.7l1.3,1.8l-2.1,11.7h-46.3v32.4h35.1l1.3,1.8l-2.1,11.7h-34.3v33.6h48.9
		L969.5,279z"/>
	<path class="st0" d="M1045.5,257.4l19,31.2l-1.3,2.1h-17.5l-16.5-28.8c-7.8-13.2-16.8-18.7-28.5-17.5v46.3H984V184.2
		c8.8-0.6,21.1-1,30.7-1c24.3,0,36.4,10.5,36.4,27.4c0,12.1-7.2,22.9-22.9,27.9l0.2,1.2C1033.5,242.9,1039.4,247.4,1045.5,257.4z
		 M1000.7,231.2c25.5,0.3,32.7-8.9,32.7-19.2c0-11.8-7.4-16.2-19.9-16.2c-4.7,0-9.5,0.3-12.8,0.6V231.2z"/>
	<path class="st0" d="M1074,287.7l-1-2.3l5.1-11.7c7,2.8,16.6,5.5,25.6,5.5c11.4,0,20.8-6,20.8-15.1c0-9.4-7.2-15.6-22.5-21.9
		c-20.7-8.8-27-17.8-27-32.7c0-13.2,10.8-27.4,34.2-27.4c10,0,17.1,0.3,28.5,4.5l0.9,2.1l-5.3,12.1c-8.5-3.1-16-4.9-24.7-4.9
		c-10.8,0-16.2,5.7-16.2,13c0,7.5,5.8,13.3,20.1,19.2c22.5,9.7,29.4,18.7,29.4,33.9c0,16.3-11.4,30.7-38.8,30.7
		C1093.2,292.8,1082.9,291.3,1074,287.7z"/>
	<path class="st0" d="M1200,290.7h-16.6v-93h-32.7l-1.6-1.8l2.4-11.7h81.6l1.5,1.8l-2.3,11.7H1200V290.7z"/>
	<path class="st0" d="M1235.4,237.5c0-32.2,22.3-55.3,54-55.3c31.3,0,53.8,17.1,53.8,55.3c0,32.2-22,55.3-53.8,55.3
		C1258.2,292.8,1235.4,275.6,1235.4,237.5z M1289.6,279.8c21.4,0,36-18,36-42.3c0-24.3-14.5-42.3-36.1-42.3c-21.3,0-36,18-36,42.3
		C1253.4,261.8,1268.1,279.8,1289.6,279.8z"/>
	<path class="st0" d="M1429.2,262.5l1.2-0.1l-0.8-78.1h16.3v105.4l-15.6,2.1l-51.4-80.1l-1.2,0.1l0.8,78.9h-16.2V185.3l15.1-2.1
		L1429.2,262.5z"/>
	<path class="st0" d="M1539.3,279l-2.1,11.7h-64.8V184.2h63.7l1.3,1.8l-2.1,11.7h-46.3v32.4h35.1l1.3,1.8l-2.1,11.7h-34.3v33.6h48.9
		L1539.3,279z"/>
</g>
<g>
	<path class="st0" d="M933.2,318.9h9.7c15.4,0,23.3,8,23.3,19.9c0,12-7.9,20-23.3,20h-6.5v25.9h-3.2V318.9z M942.9,355.9
		c12,0,20-5.8,20-17.1c0-11.2-8-17-20.1-17h-6.4v34.1H942.9z"/>
	<path class="st0" d="M978.2,318.9h3.2v30.4h44.9v-30.4h3.2v65.8h-3.2v-32.5h-44.9v32.5h-3.2V318.9z"/>
	<path class="st0" d="M1045.5,318.9h9.7c15.4,0,23.3,8,23.3,19.9c0,12-7.9,20-23.3,20h-6.5v25.9h-3.2V318.9z M1055.2,355.9
		c12,0,20-5.8,20-17.1c0-11.2-8-17-20.1-17h-6.4v34.1H1055.2z"/>
	<path class="st0" d="M1110.5,318.9h31.6v2.9h-28.4v27.7h25.1v2.9h-25.1v32.3h-3.2V318.9z"/>
	<path class="st0" d="M1150.9,338.5h3.1v6.6c1.6-4.6,6.5-7.6,11.1-7.6c2.3,0,4.4,0.3,6.5,1.1v3.8c-2.1-1-4.3-1.6-6.7-1.6
		c-5.3,0-9.3,3.6-10.9,8.5v35.4h-3.1V338.5z"/>
	<path class="st0" d="M1177.2,372.6c0-7.9,6.4-13.9,17.3-15.1l11.2-1.2V352c0-8-4.5-11.5-12-11.5c-5.5,0-9.7,1.4-14.4,4.8v-3.7
		c4.8-2.7,9.1-4.1,14.4-4.1c9.4,0,15.2,4.8,15.2,14.5v32.7h-2.8l-0.4-6.4c-3.1,4.8-8,7.4-14.1,7.4
		C1182.6,385.7,1177.2,380.5,1177.2,372.6z M1205.7,373.8v-14.6l-10.8,1.2c-9.4,1-14.5,5.6-14.5,12.2c0,6.2,4.2,10.3,11.2,10.3
		C1198.2,382.9,1203.3,379.1,1205.7,373.8z"/>
	<path class="st0" d="M1223.7,338.5h3.1v6.4c3.3-4.5,8.5-7.4,14.1-7.4c8.7,0,13.4,4.5,15.1,9.8c3.5-7.2,9.1-9.8,15.1-9.8
		c9.9,0,16.1,6.3,16.1,16.2v31h-3.1v-30.5c0-8.5-4.9-13.9-13-13.9c-5.7,0-11,2.7-14.1,10.6v33.8h-3.1v-30.9c0-8.1-4.7-13.5-13-13.5
		c-5.7,0-11,3.3-14.1,8.4v36h-3.1V338.5z"/>
	<path class="st0" d="M1299.6,361.5c0-14.3,8.2-24,20.6-24c12.3,0,19.8,8,19.8,21.1v2.8h-37.2v0.1c0,13.2,6.7,21.2,19.2,21.2
		c6.1,0,11.6-2.1,17-6.5v3.4c-5.6,4.1-11.1,6.1-17,6.1C1307.4,385.7,1299.6,376.5,1299.6,361.5z M1302.9,358.6h33.9
		c0-11.4-6.2-18.3-16.6-18.3C1310.5,340.3,1303.5,347.6,1302.9,358.6z"/>
	<path class="st0" d="M1345.8,338.5h3.3l13.5,39.1l0.8,2.4l0.8-2.4l13.5-39.1h3.2l13.5,39.1l0.8,2.4l0.8-2.4l13.5-39.1h3l-16,46.2
		h-2.9l-13.5-39.1l-0.9-2.6l-0.9,2.6l-13.7,39.1h-2.8L1345.8,338.5z"/>
	<path class="st0" d="M1418.3,361.7c0-14.5,9.2-24.2,23-24.2c13.7,0,22.9,9.6,22.9,24.1s-9.2,24.1-22.9,24.1
		C1427.5,385.7,1418.3,376.1,1418.3,361.7z M1461,361.7c0-12.8-7.9-21.4-19.7-21.4c-11.9,0-19.8,8.5-19.8,21.3s7.9,21.3,19.8,21.3
		C1453.1,382.9,1461,374.4,1461,361.7z"/>
	<path class="st0" d="M1477,338.5h3.1v6.6c1.6-4.6,6.5-7.6,11.1-7.6c2.3,0,4.4,0.3,6.5,1.1v3.8c-2.1-1-4.3-1.6-6.7-1.6
		c-5.3,0-9.3,3.6-10.9,8.5v35.4h-3.1V338.5z"/>
	<path class="st0" d="M1506.5,312.3h3.1v47.2l23-21h4.1l-24,22l26.9,24.2h-4.6l-25.4-22.8v22.8h-3.1V312.3z"/>
</g>
</svg>
